<?xml version="1.0" standalone="no"?>
<!DOCTYPE svg PUBLIC "-//W3C//DTD SVG 20010904//EN"
 "http://www.w3.org/TR/2001/REC-SVG-20010904/DTD/svg10.dtd">
<svg version="1.0" xmlns="http://www.w3.org/2000/svg"
 width="2765.000000pt" height="814.000000pt" viewBox="0 0 2765.000000 814.000000"
 preserveAspectRatio="xMidYMid meet">

<g transform="translate(0.000000,814.000000) scale(0.100000,-0.100000)"
fill="#000000" stroke="none">
<path d="M23000 7342 c-47 -1 -355 -3 -685 -5 l-600 -2 -62 -42 c-72 -50 -87
-68 -133 -159 l-35 -68 3 -528 2 -527 -27 -18 c-24 -16 -63 -19 -328 -25 -325
-7 -407 -16 -595 -68 -137 -37 -190 -58 -335 -128 -164 -80 -267 -147 -430
-280 -34 -27 -162 -151 -216 -209 -107 -114 -339 -465 -339 -514 0 -8 -6 -23
-14 -34 -15 -22 -52 -115 -84 -210 -70 -206 -103 -420 -103 -671 -1 -524 198
-1010 576 -1403 99 -103 195 -187 274 -241 29 -19 62 -43 73 -54 33 -29 258
-156 278 -156 11 0 21 -4 24 -9 6 -9 125 -58 208 -85 86 -28 201 -56 315 -76
128 -22 450 -37 472 -22 12 9 14 120 12 744 -2 403 -4 841 -6 973 -3 184 -7
1427 -5 1577 0 23 6 29 38 37 20 6 72 11 115 11 75 0 78 -1 88 -27 14 -35 16
-203 24 -2058 9 -2003 5 -1822 37 -1876 32 -53 89 -112 143 -147 81 -52 78
-51 924 -46 1758 10 1682 9 1726 32 76 39 142 127 165 217 16 65 15 643 -5
3370 -3 369 -8 1080 -11 1580 l-6 910 -23 51 c-32 72 -86 128 -158 164 l-62
31 -575 -3 c-316 -2 -613 -4 -660 -6z m346 -327 c28 -18 31 -41 7 -67 -15 -17
-39 -18 -358 -18 -360 0 -365 1 -365 46 0 39 19 43 196 46 93 2 243 4 333 6
134 2 168 0 187 -13z m994 -497 c0 -35 3 -139 5 -233 2 -93 7 -867 10 -1720 3
-852 8 -1825 12 -2161 3 -358 2 -613 -3 -616 -5 -3 -616 -7 -1358 -9 l-1349
-4 -2 135 c-2 74 -6 673 -9 1330 -4 657 -9 1347 -12 1533 l-7 337 139 1 c421
2 572 31 771 151 70 41 193 155 245 226 95 128 161 312 162 452 l1 75 -657 -4
-658 -4 0 94 c0 52 -3 175 -7 275 l-6 181 39 6 c22 4 426 7 898 7 473 0 861 2
863 4 2 2 211 4 463 5 l460 2 0 -63z m-1064 -4949 c25 -26 26 -31 31 -176 7
-172 -2 -215 -47 -238 -23 -12 -72 -15 -234 -15 -202 0 -205 0 -233 24 l-28
24 -3 174 c-5 245 -15 237 295 234 l193 -1 26 -26z"/>
<path d="M22825 1536 c-18 -13 -19 -26 -17 -167 2 -113 6 -157 16 -167 16 -16
34 -17 248 -14 127 2 160 5 172 18 13 13 16 42 16 163 0 131 -2 150 -18 164
-16 15 -46 17 -208 17 -147 0 -195 -3 -209 -14z"/>
<path d="M5900 7094 c-102 -22 -180 -65 -248 -139 -93 -99 -151 -243 -152
-372 l0 -53 175 0 175 0 0 28 c0 42 41 103 82 125 77 39 118 36 623 -43 147
-24 354 -29 430 -11 28 6 76 21 108 32 l57 21 0 193 0 192 -67 -19 c-155 -43
-321 -40 -623 12 -295 51 -442 60 -560 34z"/>
<path d="M14690 4855 l0 -2145 295 0 295 0 0 2145 0 2145 -295 0 -295 0 0
-2145z"/>
<path d="M6100 4515 l0 -1805 295 0 295 0 0 1805 0 1805 -295 0 -295 0 0
-1805z"/>
<path d="M9732 5331 c-74 -26 -122 -67 -157 -136 -27 -54 -30 -70 -30 -150 0
-106 24 -170 83 -228 62 -60 122 -81 232 -82 82 0 103 4 150 26 70 33 106 70
139 139 22 46 26 69 26 145 0 80 -3 97 -30 150 -52 104 -148 155 -289 155 -42
-1 -93 -8 -124 -19z"/>
<path d="M16651 4954 c-112 -129 -201 -237 -199 -238 443 -365 707 -685 849
-1030 36 -87 95 -284 87 -291 -16 -15 -208 -71 -317 -92 -127 -25 -154 -27
-416 -27 -226 -1 -301 3 -390 17 -142 24 -252 50 -344 82 -41 14 -76 25 -78
25 -2 0 -3 -144 -3 -319 l0 -319 38 -15 c56 -22 234 -65 347 -83 158 -25 501
-30 670 -9 427 52 776 189 994 390 l63 59 -7 136 c-18 356 -86 618 -240 925
-133 266 -297 492 -529 733 -120 124 -301 292 -315 292 -4 0 -99 -106 -210
-236z"/>
<path d="M24755 5182 c-7 -8 -6 -647 1 -666 6 -15 52 -16 498 -11 637 7 697
10 749 34 65 29 123 86 169 164 38 65 42 80 46 153 4 71 1 88 -19 130 -13 27
-52 76 -85 109 -102 100 -78 97 -769 94 -322 -1 -587 -5 -590 -7z"/>
<path d="M12870 4874 c-146 -31 -346 -157 -475 -297 -178 -193 -321 -485 -366
-747 -7 -41 -13 -145 -13 -230 0 -130 3 -168 23 -240 42 -155 109 -270 218
-370 170 -157 400 -246 703 -271 176 -15 441 -2 558 28 23 5 24 4 17 -28 -25
-126 -88 -258 -167 -353 -45 -53 -151 -125 -235 -159 -242 -98 -629 -113 -990
-37 -53 11 -103 20 -112 20 -14 0 -16 -33 -13 -318 l3 -319 137 -22 c295 -47
501 -53 723 -21 354 52 607 175 819 397 219 229 338 498 385 873 24 184 16
593 -14 788 -111 718 -420 1193 -849 1303 -90 23 -254 25 -352 3z m249 -626
c62 -16 151 -86 204 -160 106 -149 173 -334 213 -588 15 -93 16 -113 4 -120
-31 -19 -224 -35 -410 -34 -165 1 -207 5 -274 23 -161 43 -246 100 -287 194
-46 107 -20 289 64 437 44 79 159 191 231 224 93 44 153 49 255 24z"/>
<path d="M4770 4692 c0 -5 18 -84 40 -178 102 -435 146 -814 105 -893 -26 -51
-103 -109 -188 -142 -226 -87 -583 -122 -1237 -123 -525 0 -741 17 -1020 80
-210 48 -393 135 -482 230 -49 54 -96 154 -108 235 -17 104 1 278 46 456 19
75 34 138 34 140 0 2 -127 2 -282 1 l-282 -3 -18 -60 c-54 -182 -85 -491 -68
-677 12 -125 15 -140 47 -248 128 -430 504 -690 1164 -805 256 -44 405 -56
784 -62 512 -8 838 16 1179 87 271 57 466 132 636 245 221 147 344 341 368
585 19 185 -15 565 -84 943 -19 103 -34 190 -34 192 0 3 -135 5 -300 5 -165 0
-300 -4 -300 -8z"/>
<path d="M10765 4478 c13 -57 146 -811 169 -958 61 -392 74 -678 36 -824 -74
-289 -324 -440 -805 -487 -156 -15 -541 -6 -654 15 -331 62 -535 188 -635 393
-52 105 -69 193 -69 358 0 166 17 294 65 500 17 71 32 140 35 153 l5 22 -274
0 -275 0 -26 -97 c-66 -247 -98 -477 -98 -698 -1 -242 37 -434 121 -612 162
-346 517 -604 966 -702 301 -67 712 -72 1034 -15 530 95 927 384 1089 795 126
318 132 665 25 1434 -34 247 -104 706 -110 728 -5 16 -28 17 -305 17 l-299 0
5 -22z"/>
<path d="M25080 4192 c-193 -1 -308 -6 -315 -13 -15 -15 -7 -711 8 -721 7 -4
430 -5 942 -1 878 5 932 6 971 24 52 23 171 152 180 194 3 17 10 35 14 40 5 6
13 37 20 71 22 113 -16 215 -119 319 -94 95 -54 90 -771 90 -344 0 -762 -1
-930 -3z"/>
<path d="M24795 3281 l-30 -6 -2 -312 c-2 -263 0 -315 12 -327 13 -13 116 -14
767 -10 414 2 773 6 797 9 78 9 179 89 234 186 34 61 53 170 38 224 -15 56
-68 137 -119 178 -83 69 -65 68 -910 66 -416 -1 -770 -5 -787 -8z"/>
<path d="M24774 2458 c-9 -14 -6 -616 2 -630 7 -12 291 -3 324 10 35 14 123
110 139 152 7 19 20 53 29 75 26 61 21 158 -11 225 -38 78 -116 160 -164 171
-60 14 -310 11 -319 -3z"/>
<path d="M3392 2239 c-100 -17 -177 -74 -216 -159 -30 -65 -30 -216 0 -281 50
-107 156 -170 289 -172 187 -1 305 100 321 274 16 162 -60 290 -193 328 -52
15 -146 20 -201 10z"/>
</g>
</svg>
