<?xml version="1.0" standalone="no"?>
<!DOCTYPE svg PUBLIC "-//W3C//DTD SVG 20010904//EN"
 "http://www.w3.org/TR/2001/REC-SVG-20010904/DTD/svg10.dtd">
<svg version="1.0" xmlns="http://www.w3.org/2000/svg"
 width="2765.000000pt" height="814.000000pt" viewBox="0 0 2765.000000 814.000000"
 preserveAspectRatio="xMidYMid meet">
<metadata>
Created by potrace 1.16, written by Peter Selinger 2001-2019
</metadata>
<g transform="translate(0.000000,814.000000) scale(0.100000,-0.100000)"
fill="#000000" stroke="none">
<path d="M2615 7132 c-61 -9 -182 -142 -205 -224 -7 -24 -10 -182 -9 -430 1
-447 1 -460 -9 -470 -4 -4 -113 -10 -242 -12 -129 -3 -248 -7 -265 -10 -16 -2
-59 -7 -94 -10 -36 -4 -71 -12 -78 -18 -7 -6 -13 -8 -13 -5 0 7 -176 -40 -215
-57 -16 -8 -47 -20 -67 -27 -21 -7 -38 -16 -38 -20 0 -4 -12 -10 -26 -13 -14
-4 -42 -17 -62 -29 -20 -13 -59 -34 -87 -47 -27 -14 -55 -29 -61 -35 -6 -5
-22 -17 -34 -25 -12 -8 -30 -22 -40 -30 -10 -8 -28 -22 -40 -30 -25 -17 -99
-82 -169 -150 -55 -52 -179 -205 -194 -237 -6 -13 -14 -23 -18 -23 -8 0 -140
-226 -143 -246 -1 -7 -10 -30 -20 -51 -34 -70 -58 -130 -61 -153 0 -3 -4 -11
-8 -17 -5 -7 -10 -22 -13 -33 -2 -11 -6 -29 -9 -40 -3 -11 -7 -28 -9 -38 -2
-9 -9 -35 -15 -57 -44 -168 -49 -451 -12 -683 15 -94 77 -291 123 -392 63
-141 158 -294 228 -370 8 -9 33 -38 55 -65 22 -28 55 -63 74 -80 19 -16 39
-36 45 -43 23 -28 66 -68 96 -92 17 -14 44 -35 58 -47 15 -13 30 -23 34 -23 5
0 16 -8 26 -18 22 -22 229 -142 246 -142 6 0 21 -6 32 -14 27 -19 126 -55 194
-71 98 -23 194 -46 233 -56 88 -23 394 -32 419 -12 12 11 14 189 12 1392 l-3
1380 22 7 c30 10 130 5 141 -6 5 -5 11 -570 12 -1362 2 -744 4 -1360 4 -1368
0 -8 0 -122 0 -252 -1 -134 3 -253 9 -275 22 -79 128 -173 226 -198 26 -7 263
-10 690 -8 358 1 736 2 840 2 630 -1 613 -2 679 64 35 35 75 99 83 132 2 11 7
31 10 45 3 14 5 477 5 1030 -1 891 -1 1141 -1 1445 0 44 0 157 -1 250 -1 94
-1 247 -1 340 0 94 0 536 0 984 l0 814 -25 62 c-27 68 -63 107 -136 148 l-47
27 -1053 -2 c-579 -2 -1062 -4 -1073 -6z m1369 -298 c9 -8 16 -21 16 -28 0
-33 -22 -36 -310 -36 -209 0 -289 3 -298 12 -17 17 -15 45 6 57 10 6 124 11
294 11 238 0 279 -2 292 -16z m826 -2364 l0 -2000 -882 0 c-486 -1 -993 -1
-1128 -2 l-245 -1 -5 674 c-3 371 -5 998 -5 1394 l0 720 235 6 c251 6 303 15
434 73 238 106 412 356 428 616 l3 55 -552 3 -553 2 0 230 0 230 1135 0 1135
0 0 -2000z m-911 -2175 c18 -18 20 -35 21 -145 2 -171 2 -168 -20 -190 -19
-19 -33 -20 -202 -20 -240 0 -228 -10 -228 185 0 199 -4 196 237 193 157 -3
174 -5 192 -23z"/>
<path d="M3528 2269 c-16 -9 -18 -27 -18 -138 0 -107 3 -131 17 -142 12 -11
54 -14 176 -13 144 1 161 3 173 19 10 13 14 52 14 130 0 161 7 155 -188 155
-88 0 -165 -5 -174 -11z"/>
<path d="M5125 5320 c-3 -4 -4 -137 -4 -294 1 -210 5 -290 13 -299 10 -9 95
-11 347 -9 184 1 405 2 492 2 164 0 233 13 268 49 9 9 26 23 38 31 21 14 102
149 108 180 19 96 -15 197 -91 268 -88 83 -66 80 -649 80 -284 0 -519 -3 -522
-8z"/>
<path d="M7725 5154 c-161 -16 -230 -32 -247 -58 -4 -6 -8 -421 -8 -923 0
-1057 -14 -943 118 -962 138 -20 385 -33 491 -27 460 29 756 267 863 692 19
78 22 116 22 304 1 194 -1 224 -23 305 -86 333 -304 552 -636 641 -92 24 -118
27 -320 29 -121 2 -238 1 -260 -1z m460 -373 c180 -64 311 -224 351 -431 23
-114 15 -323 -16 -430 -45 -156 -125 -262 -243 -320 -94 -46 -158 -60 -284
-60 l-113 0 0 628 c0 346 3 632 8 636 15 16 235 -1 297 -23z"/>
<path d="M18981 5087 c-79 -43 -137 -81 -142 -92 -12 -32 -11 -1699 2 -1732 5
-15 16 -31 22 -35 7 -4 80 -8 162 -8 120 0 155 3 173 16 l22 15 0 935 c0 921
0 934 -20 954 -35 35 -75 25 -219 -53z"/>
<path d="M19630 5149 c-154 -62 -179 -287 -43 -382 48 -34 139 -47 197 -27
185 61 194 329 14 404 -42 18 -130 20 -168 5z"/>
<path d="M24105 5141 c-110 -50 -153 -186 -94 -302 62 -124 243 -148 345 -45
105 105 73 286 -60 347 -53 24 -139 24 -191 0z"/>
<path d="M14647 5112 c-8 -9 -140 -361 -292 -782 -374 -1034 -375 -1037 -368
-1057 18 -51 26 -53 202 -53 91 0 173 4 181 10 8 5 44 93 80 197 l65 188 307
3 306 2 62 -184 c33 -101 69 -191 79 -200 15 -13 45 -16 183 -16 177 0 186 2
202 56 4 15 -42 157 -145 440 -83 231 -230 634 -325 898 -95 263 -181 487
-190 497 -15 17 -33 19 -174 19 -137 0 -159 -2 -173 -18z m267 -870 c47 -140
86 -256 86 -258 0 -2 -81 -4 -181 -4 -168 0 -181 1 -174 17 3 10 39 114 80
233 85 250 94 274 99 269 2 -2 42 -118 90 -257z"/>
<path d="M23183 4954 c-180 -94 -173 -85 -173 -216 l0 -108 -73 0 c-64 0 -76
-3 -95 -23 -20 -21 -22 -34 -22 -148 0 -118 1 -127 23 -147 19 -18 35 -22 95
-22 l72 0 0 -386 c0 -420 4 -462 57 -554 63 -108 187 -170 340 -170 116 0 305
66 374 131 42 39 38 69 -23 161 -71 109 -87 116 -179 73 -89 -40 -164 -35
-175 12 -9 32 -10 106 -6 451 l2 282 168 0 c217 0 207 -8 207 170 0 178 10
170 -207 170 l-168 0 0 160 c0 95 -4 169 -11 183 -10 23 -46 47 -69 47 -5 0
-67 -30 -137 -66z"/>
<path d="M9604 4640 c-237 -62 -413 -248 -480 -505 -25 -98 -25 -323 0 -420
38 -147 128 -290 244 -387 60 -50 190 -113 267 -129 87 -18 257 -15 335 6 311
82 511 364 510 718 -2 366 -210 657 -517 722 -97 21 -271 18 -359 -5z m268
-322 c121 -36 208 -204 208 -403 0 -242 -131 -408 -311 -392 -145 13 -235 123
-260 316 -20 154 14 304 91 401 60 76 172 108 272 78z"/>
<path d="M13170 4644 c-30 -8 -82 -28 -115 -44 -56 -27 -61 -28 -72 -12 -30
42 -31 42 -167 42 -126 0 -134 -1 -154 -23 l-22 -23 0 -662 c0 -649 0 -662 20
-682 18 -18 33 -20 174 -20 l155 0 20 26 c21 26 21 36 21 499 0 537 -10 483
95 532 50 23 73 28 140 28 130 0 189 -44 220 -161 12 -47 15 -134 15 -471 0
-400 1 -414 20 -433 18 -18 33 -20 173 -20 144 0 155 1 173 21 18 20 19 43 19
483 0 446 -1 464 -23 552 -50 198 -167 322 -349 369 -74 19 -269 19 -343 -1z"/>
<path d="M16283 4645 c-69 -19 -118 -40 -154 -65 -29 -21 -29 -21 -29 -1 0 40
-35 51 -165 51 -114 0 -123 -1 -143 -23 l-22 -23 0 -912 c0 -899 0 -912 20
-932 18 -18 33 -20 173 -20 144 0 155 1 173 21 17 19 19 41 22 259 l3 238 48
-19 c122 -46 321 -45 444 1 213 81 373 274 421 506 34 166 28 347 -15 483 -66
209 -202 353 -399 423 -74 27 -300 35 -377 13z m229 -339 c121 -58 185 -209
176 -413 -12 -251 -156 -405 -348 -371 -58 11 -128 54 -157 97 -22 33 -23 40
-23 288 0 282 1 285 66 343 64 56 130 82 195 77 31 -3 72 -12 91 -21z"/>
<path d="M17805 4641 c-33 -10 -83 -29 -112 -44 -60 -31 -63 -32 -63 -14 0 8
-8 21 -18 30 -15 14 -41 17 -145 17 -124 0 -126 0 -146 -26 -21 -27 -21 -31
-21 -929 0 -898 0 -902 21 -929 l20 -26 152 0 c84 0 157 4 163 8 30 19 34 55
34 281 l0 231 49 -20 c80 -31 207 -44 307 -30 162 21 276 80 388 201 116 125
180 289 192 489 16 261 -63 484 -222 629 -63 58 -191 123 -272 140 -81 17
-257 13 -327 -8z m216 -326 c129 -44 199 -182 200 -390 0 -245 -118 -406 -299
-406 -64 -1 -100 11 -155 48 -76 52 -77 59 -77 345 l0 255 28 39 c50 69 147
123 223 124 19 0 56 -7 80 -15z"/>
<path d="M20645 4644 c-192 -47 -372 -199 -461 -391 -51 -109 -67 -188 -67
-338 1 -232 58 -380 203 -526 146 -146 284 -200 515 -202 201 -1 344 45 463
149 66 58 67 79 7 190 -66 120 -91 128 -187 64 -74 -49 -111 -61 -218 -67 -71
-4 -94 -1 -143 17 -158 59 -241 191 -239 380 2 232 133 395 327 408 93 6 159
-10 263 -61 79 -39 84 -41 110 -27 34 19 111 162 112 207 0 27 -8 38 -47 68
-67 51 -195 110 -280 129 -90 20 -276 20 -358 0z"/>
<path d="M21933 4644 c-172 -37 -383 -168 -383 -236 0 -35 74 -172 103 -193
32 -23 52 -19 125 25 199 120 419 104 467 -35 l13 -40 -151 -7 c-174 -7 -272
-29 -383 -83 -179 -88 -264 -222 -264 -417 1 -109 11 -161 47 -235 52 -105
167 -193 293 -224 75 -19 249 -16 330 6 35 9 91 30 123 46 l58 28 9 -23 c12
-33 26 -36 164 -36 112 0 125 2 142 21 18 20 19 43 18 493 0 449 -1 475 -22
548 -56 204 -162 317 -339 363 -71 19 -264 18 -350 -1z m327 -887 c0 -109 -6
-126 -60 -174 -64 -57 -201 -80 -270 -45 -91 45 -100 185 -16 254 42 34 165
60 314 67 l32 1 0 -103z"/>
<path d="M25102 4640 c-160 -42 -309 -156 -395 -301 -142 -240 -139 -608 7
-834 103 -160 254 -270 421 -306 85 -18 256 -15 334 5 234 62 420 251 485 491
24 85 32 276 16 372 -47 295 -247 523 -507 578 -98 21 -271 18 -361 -5z m270
-322 c121 -36 207 -200 208 -398 0 -247 -130 -413 -311 -397 -145 13 -236 124
-259 316 -39 319 133 548 362 479z"/>
<path d="M26716 4644 c-32 -8 -87 -29 -122 -48 -54 -29 -64 -31 -64 -16 0 9
-8 24 -18 33 -15 14 -42 17 -150 17 -119 0 -134 -2 -152 -20 -20 -20 -20 -33
-20 -688 0 -635 1 -670 18 -685 16 -14 43 -17 174 -17 137 0 157 2 171 18 15
17 17 66 17 495 l0 476 37 30 c56 46 151 75 229 68 125 -10 187 -74 205 -215
4 -37 8 -241 9 -453 0 -361 1 -387 18 -402 16 -14 43 -17 174 -17 137 0 157 2
171 18 15 17 17 64 17 476 0 378 -3 470 -16 534 -44 213 -163 348 -351 396
-76 20 -265 20 -347 0z"/>
<path d="M10536 4614 c-38 -37 -35 -49 188 -712 119 -355 224 -654 233 -664
14 -16 34 -18 170 -18 133 0 155 2 171 18 10 10 57 160 116 370 55 194 103
349 107 345 3 -5 23 -69 43 -143 117 -436 156 -565 173 -577 12 -9 62 -13 168
-13 134 0 154 2 168 18 9 10 70 175 136 368 66 192 165 482 220 644 56 162
101 304 101 316 0 11 -10 30 -23 42 -22 21 -33 22 -178 22 -111 0 -160 -4
-173 -13 -21 -15 -35 -57 -151 -449 -49 -164 -91 -295 -94 -292 -3 3 -47 165
-97 360 -56 214 -99 363 -110 375 -15 17 -32 19 -176 19 -88 0 -167 -4 -177
-10 -24 -12 -32 -35 -86 -235 -24 -93 -67 -251 -94 -350 l-48 -180 -21 70
c-12 39 -61 204 -110 368 -49 163 -97 306 -107 317 -17 18 -31 20 -176 20
-130 0 -160 -3 -173 -16z"/>
<path d="M19539 4611 l-24 -19 0 -665 c0 -640 1 -666 19 -686 18 -20 29 -21
176 -21 139 0 159 2 173 18 16 17 17 79 17 685 0 654 0 667 -20 687 -18 18
-33 20 -169 20 -132 0 -152 -2 -172 -19z"/>
<path d="M24025 4605 l-25 -24 0 -645 c0 -638 2 -689 33 -708 7 -4 80 -8 162
-8 120 0 155 3 173 16 l22 15 0 668 c0 658 0 668 -20 689 -20 21 -29 22 -171
22 -146 0 -151 -1 -174 -25z"/>
<path d="M5141 4478 c-18 -19 -19 -40 -20 -309 0 -256 2 -291 17 -309 18 -22
14 -21 597 -18 164 0 569 0 757 -1 223 -2 228 -1 275 23 43 22 73 47 125 103
9 10 27 41 39 68 29 67 33 217 6 258 -9 15 -14 27 -10 27 5 0 3 4 -2 8 -6 4
-21 24 -35 45 -14 20 -33 40 -42 43 -10 3 -18 9 -18 14 0 13 -61 45 -111 58
-32 8 -264 11 -802 11 -747 0 -758 -1 -776 -21z"/>
<path d="M5287 3740 c-106 -4 -150 -9 -156 -18 -12 -20 -6 -551 7 -564 12 -12
1293 -15 1355 -3 20 4 37 11 37 15 0 5 9 11 20 15 36 12 96 79 130 148 53 108
48 190 -18 278 -20 27 -40 49 -44 49 -4 0 -8 6 -8 13 0 15 -74 60 -83 51 -3
-4 -14 -3 -24 1 -10 5 -25 10 -33 12 -23 6 -1015 9 -1183 3z"/>
<path d="M5178 3062 c-23 -2 -41 -10 -47 -20 -9 -19 -7 -535 3 -551 8 -13 267
-14 299 -1 20 8 42 27 88 78 22 24 62 92 54 92 -3 0 -1 9 5 21 16 28 21 56 21
117 1 65 -48 158 -113 218 l-43 40 -109 2 c-59 1 -111 3 -115 5 -3 1 -23 1
-43 -1z"/>
</g>
</svg>
