<svg xmlns="http://www.w3.org/2000/svg" width="24" height="24" viewBox="0 0 24 24"><g opacity="0.5"><path d="M0,0H24V24H0Z" fill="none"/><path d="M4.5,9A4.5,4.5,0,1,1,7.682,7.682,4.5,4.5,0,0,1,4.5,9ZM5,19a4.5,4.5,0,1,1,3.182-1.318A4.5,4.5,0,0,1,5,19ZM15,9a4.5,4.5,0,1,1,3.182-1.318A4.5,4.5,0,0,1,15,9Zm0,10a4.5,4.5,0,1,1,3.182-1.318A4.5,4.5,0,0,1,15,19ZM4.5,7a2.5,2.5,0,1,0-1.768-.732A2.5,2.5,0,0,0,4.5,7ZM5,17a2.5,2.5,0,1,0-1.768-.732A2.5,2.5,0,0,0,5,17ZM15,7a2.5,2.5,0,1,0-1.768-.732A2.5,2.5,0,0,0,15,7Zm0,10a2.5,2.5,0,1,0-1.768-.732A2.5,2.5,0,0,0,15,17Z" transform="translate(2 2.5)" fill="#1f4173"/></g></svg>